<?xml version="1.0" standalone="no"?>
<!DOCTYPE svg PUBLIC "-//W3C//DTD SVG 20010904//EN"
 "http://www.w3.org/TR/2001/REC-SVG-20010904/DTD/svg10.dtd">
<svg version="1.0" xmlns="http://www.w3.org/2000/svg"
 width="220.000000pt" height="300.000000pt" viewBox="0 0 220.000000 300.000000"
 preserveAspectRatio="xMidYMid meet">

<g transform="translate(0.000000,300.000000) scale(0.100000,-0.100000)"
fill="#000000" stroke="none">
<path d="M945 2988 c-11 -6 -40 -28 -65 -48 -25 -21 -59 -45 -77 -54 -41 -21
-152 -21 -222 0 -64 19 -79 14 -110 -33 -49 -75 -95 -126 -125 -138 -17 -7
-65 -18 -105 -24 -41 -7 -82 -17 -90 -24 -20 -17 -48 -84 -56 -137 -5 -36 -16
-53 -52 -88 l-46 -42 7 -77 c8 -91 16 -133 25 -133 15 1 51 101 52 146 1 47 1
48 10 17 8 -27 14 -33 37 -32 54 2 82 21 107 68 l24 46 1 -34 0 -33 35 26 c34
26 35 26 35 6 0 -19 4 -21 33 -15 17 4 49 15 69 25 21 10 40 14 44 9 11 -18
20 -8 41 49 25 62 90 172 103 172 4 0 -3 -29 -16 -65 -23 -64 -32 -135 -16
-135 4 0 16 6 27 13 11 8 28 17 39 21 16 5 18 3 13 -23 -7 -34 4 -41 61 -41
23 0 51 10 75 25 36 25 37 25 37 5 0 -23 21 -26 66 -10 20 7 41 31 69 78 35
59 40 64 43 41 2 -14 -3 -44 -11 -67 -12 -34 -12 -42 -1 -42 7 0 16 5 19 10 9
14 25 12 23 -2 -2 -10 21 -14 85 -16 73 -2 87 -5 87 -19 0 -13 7 -10 30 12 17
16 30 34 30 40 0 26 52 83 100 109 28 15 53 26 56 24 2 -3 -29 -43 -70 -90
-56 -64 -72 -88 -63 -97 6 -6 19 -11 29 -11 13 0 18 -8 18 -29 0 -28 2 -30 48
-33 40 -3 47 -6 50 -26 l3 -22 29 20 c16 11 48 27 71 35 44 16 119 20 119 8 0
-5 -19 -17 -42 -28 -23 -11 -58 -32 -78 -46 -31 -23 -37 -32 -36 -62 1 -19 7
-41 14 -50 9 -10 11 -31 6 -66 -4 -28 -5 -51 -2 -51 2 0 26 7 52 16 26 9 49
14 52 11 3 -3 -21 -20 -53 -38 -84 -47 -86 -49 -66 -64 15 -11 14 -16 -10 -58
l-27 -45 21 -26 c12 -15 18 -33 15 -41 -7 -19 -1 -19 63 6 30 11 63 19 75 17
16 -2 8 -11 -40 -40 -69 -42 -90 -63 -75 -72 6 -4 6 -17 -1 -36 -5 -17 -7 -43
-3 -58 10 -40 46 -122 54 -122 4 0 18 19 31 43 51 90 143 166 202 167 23 1 49
30 125 143 36 53 34 72 -13 134 -13 17 -24 37 -24 43 0 6 15 41 34 78 55 109
52 135 -18 205 l-53 54 -13 133 c-13 130 -14 133 -43 150 -17 10 -61 26 -98
35 -60 15 -71 22 -91 53 -41 66 -119 153 -153 169 -30 15 -41 14 -123 -1 -49
-9 -103 -16 -120 -16 -16 0 -77 24 -136 55 -113 59 -120 61 -151 43z"/>
<path d="M12 2130 c0 -14 2 -19 5 -12 2 6 2 18 0 25 -3 6 -5 1 -5 -13z"/>
<path d="M1178 2010 c-40 -5 -55 -15 -138 -93 -51 -48 -130 -119 -175 -157
l-82 -70 -64 0 -63 0 27 -27 c39 -42 68 -116 70 -181 1 -31 5 -61 9 -67 4 -5
19 -23 33 -40 l26 -30 -25 39 c-24 36 -25 40 -11 67 20 38 70 94 108 121 l30
22 -6 -45 c-14 -106 41 -209 112 -209 47 0 79 23 102 74 20 45 25 129 9 170
-18 47 15 29 57 -31 50 -72 60 -111 39 -155 l-16 -33 31 35 c54 63 52 71 -36
198 l-50 71 -75 3 c-62 3 -75 6 -78 21 -3 14 4 17 37 17 23 0 41 5 41 10 0 6
-18 10 -40 10 -35 0 -40 3 -39 23 2 46 16 67 83 122 89 72 112 84 215 105 47
10 79 20 71 24 -22 8 -149 12 -202 6z m-169 -394 c17 -20 -2 -54 -34 -62 -49
-12 -61 22 -19 55 32 25 38 26 53 7z"/>
<path d="M11 1944 c0 -11 3 -14 6 -6 3 7 2 16 -1 19 -3 4 -6 -2 -5 -13z"/>
<path d="M92 1846 c-38 -35 -40 -56 -4 -37 35 19 57 12 94 -26 46 -49 56 -88
25 -98 l-22 -8 23 -4 c18 -4 22 -11 22 -39 0 -21 -5 -34 -13 -34 -7 0 -23 -31
-36 -69 -22 -66 -23 -69 -6 -95 19 -28 27 -34 19 -12 -5 14 23 125 35 138 3 3
26 8 51 10 42 3 45 1 45 -22 0 -31 -41 -42 -52 -14 -6 16 -7 16 -14 -2 -21
-53 -2 -139 43 -189 58 -66 107 -30 117 84 l6 66 21 -34 c24 -37 40 -28 24 14
-5 14 -10 40 -10 56 0 29 -83 219 -95 219 -4 0 -5 -9 -2 -21 6 -24 12 -28
-112 79 -47 39 -93 72 -103 72 -10 0 -35 -15 -56 -34z"/>
<path d="M1778 1636 c-32 -7 -60 -15 -63 -17 -3 -3 -9 -34 -14 -69 -10 -75
-32 -99 -137 -149 -49 -23 -67 -38 -77 -63 -20 -48 -165 -226 -223 -274 -27
-23 -107 -82 -179 -132 -71 -50 -149 -105 -172 -121 -45 -33 -122 -55 -157
-46 -49 15 -125 49 -121 55 3 4 23 10 46 14 41 7 84 24 77 31 -2 3 -26 -2 -53
-10 -26 -8 -67 -15 -91 -15 -34 0 -47 5 -64 28 -18 22 -22 23 -19 7 3 -16 39
-42 81 -57 3 -2 -7 -66 -23 -143 -44 -206 -33 -255 40 -176 l38 41 17 -43 c9
-24 14 -53 10 -63 -6 -18 -6 -18 9 1 9 11 17 17 17 13 0 -4 12 4 26 19 21 21
26 35 27 92 4 106 67 195 67 94 1 -26 7 -59 15 -73 19 -34 19 -36 -13 -49
l-29 -12 38 -80 c68 -140 134 -192 224 -175 35 7 248 144 344 223 30 24 60 47
66 51 6 4 17 63 24 132 14 143 20 180 31 180 4 0 10 -15 14 -32 11 -56 36
-340 31 -349 -3 -4 4 -13 15 -19 11 -6 18 -15 15 -20 -3 -6 2 -7 12 -4 16 5
15 3 -2 -12 -18 -15 -18 -16 -2 -10 10 3 25 6 34 6 11 0 14 11 13 42 -2 24 4
59 12 78 9 20 18 83 21 150 3 64 10 127 16 140 9 24 10 24 30 -22 25 -55 41
-132 41 -199 0 -55 20 -83 54 -73 11 3 25 10 30 14 4 5 14 79 22 167 16 183
16 185 -56 407 -60 187 -63 223 -19 255 37 27 60 77 49 105 -4 11 -3 36 2 54
13 47 -7 124 -31 121 -3 0 -32 -6 -63 -13z m-387 -613 c6 -16 14 -100 19 -188
5 -88 12 -176 15 -195 l7 -35 -31 30 c-40 39 -62 137 -64 283 -2 92 0 105 17
118 26 18 25 19 37 -13z"/>
<path d="M1892 1540 c0 -14 2 -19 5 -12 2 6 2 18 0 25 -3 6 -5 1 -5 -13z"/>
<path d="M446 1375 c-9 -26 -7 -32 5 -12 6 10 9 21 6 23 -2 3 -7 -2 -11 -11z"/>
<path d="M239 1343 c12 -18 27 -33 34 -33 6 0 5 5 -4 13 -8 6 -23 21 -33 32
-14 15 -13 11 3 -12z"/>
<path d="M1160 1340 c-9 -6 -10 -10 -3 -10 6 0 15 5 18 10 8 12 4 12 -15 0z"/>
<path d="M419 1323 c-13 -16 -12 -17 4 -4 9 7 17 15 17 17 0 8 -8 3 -21 -13z"/>
<path d="M878 1323 c7 -3 16 -2 19 1 4 3 -2 6 -13 5 -11 0 -14 -3 -6 -6z"/>
<path d="M948 1313 c12 -2 30 -2 40 0 9 3 -1 5 -23 4 -22 0 -30 -2 -17 -4z"/>
<path d="M1063 1313 c9 -2 23 -2 30 0 6 3 -1 5 -18 5 -16 0 -22 -2 -12 -5z"/>
<path d="M446 1207 c-9 -30 -16 -62 -16 -70 0 -20 84 -93 116 -101 19 -5 45 3
97 32 108 58 99 67 -66 67 -75 0 -137 4 -137 8 0 5 7 31 16 58 9 27 14 52 11
55 -3 3 -12 -19 -21 -49z"/>
<path d="M181 1184 c0 -11 3 -14 6 -6 3 7 2 16 -1 19 -3 4 -6 -2 -5 -13z"/>
<path d="M510 945 c27 -29 66 -41 164 -49 46 -4 66 -2 60 4 -6 6 -48 13 -93
17 -67 5 -89 11 -111 30 -37 31 -50 30 -20 -2z"/>
<path d="M1510 526 c0 -2 8 -10 18 -17 15 -13 16 -12 3 4 -13 16 -21 21 -21
13z"/>
<path d="M676 395 c-9 -26 -7 -32 5 -12 6 10 9 21 6 23 -2 3 -7 -2 -11 -11z"/>
<path d="M696 385 c-9 -26 -7 -32 5 -12 6 10 9 21 6 23 -2 3 -7 -2 -11 -11z"/>
<path d="M1508 365 c-25 -19 -60 -54 -78 -78 -44 -55 -53 -72 -15 -27 42 49
74 81 115 113 19 15 32 27 29 27 -3 0 -26 -16 -51 -35z"/>
<path d="M1554 372 c-71 -52 -155 -155 -203 -249 -34 -67 -24 -64 13 3 59 110
136 202 216 256 14 9 22 17 19 17 -3 1 -24 -12 -45 -27z"/>
<path d="M651 304 c0 -11 3 -14 6 -6 3 7 2 16 -1 19 -3 4 -6 -2 -5 -13z"/>
<path d="M483 215 c0 -33 2 -45 4 -27 2 18 2 45 0 60 -2 15 -4 0 -4 -33z"/>
<path d="M643 235 c0 -22 2 -30 4 -17 2 12 2 30 0 40 -3 9 -5 -1 -4 -23z"/>
<path d="M662 240 c0 -14 2 -19 5 -12 2 6 2 18 0 25 -3 6 -5 1 -5 -13z"/>
<path d="M1860 203 c-63 -49 -134 -114 -164 -152 l-30 -36 32 29 c18 17 32 26
32 21 0 -4 9 0 20 10 11 10 17 21 15 26 -5 7 35 44 115 108 38 30 20 25 -20
-6z m-110 -118 c-7 -9 -15 -13 -19 -10 -3 3 1 10 9 15 21 14 24 12 10 -5z"/>
<path d="M453 180 c0 -25 2 -35 4 -22 2 12 2 32 0 45 -2 12 -4 2 -4 -23z"/>
<path d="M1848 166 c-31 -25 -59 -50 -63 -57 -6 -9 88 63 120 92 25 24 -6 4
-57 -35z"/>
<path d="M1325 129 c-15 -28 -25 -54 -23 -58 2 -5 15 18 30 50 33 72 28 78 -7
8z"/>
<path d="M472 110 c0 -19 2 -27 5 -17 2 9 2 25 0 35 -3 9 -5 1 -5 -18z"/>
<path d="M442 100 c0 -14 2 -19 5 -12 2 6 2 18 0 25 -3 6 -5 1 -5 -13z"/>
<path d="M642 70 c0 -19 2 -27 5 -17 2 9 2 25 0 35 -3 9 -5 1 -5 -18z"/>
<path d="M662 70 c0 -14 2 -19 5 -12 2 6 2 18 0 25 -3 6 -5 1 -5 -13z"/>
<path d="M432 40 c0 -14 2 -19 5 -12 2 6 2 18 0 25 -3 6 -5 1 -5 -13z"/>
<path d="M462 30 c0 -19 2 -27 5 -17 2 9 2 25 0 35 -3 9 -5 1 -5 -18z"/>
<path d="M1704 28 l-19 -23 23 19 c12 11 22 21 22 23 0 8 -8 2 -26 -19z"/>
<path d="M1300 25 c-7 -9 -11 -17 -9 -20 3 -2 10 5 17 15 14 24 10 26 -8 5z"/>
</g>
</svg>
